<svg width="17" height="17" viewBox="0 0 17 17" fill="none" xmlns="http://www.w3.org/2000/svg">
<path d="M11.5 9.175V12.325C11.5 14.95 10.45 16 7.825 16H4.675C2.05 16 1 14.95 1 12.325V9.175C1 6.55 2.05 5.5 4.675 5.5H7.825C10.45 5.5 11.5 6.55 11.5 9.175Z" stroke="#B95AFF" stroke-linecap="round" stroke-linejoin="round"/>
<path d="M16 4.675V7.825C16 10.45 14.95 11.5 12.325 11.5H11.5V9.175C11.5 6.55 10.45 5.5 7.825 5.5H5.5V4.675C5.5 2.05 6.55 1 9.175 1H12.325C14.95 1 16 2.05 16 4.675Z" stroke="white" stroke-linecap="round" stroke-linejoin="round"/>
</svg>
